<svg width="2691" height="597" viewBox="0 0 2691 597" fill="none" xmlns="http://www.w3.org/2000/svg">
<path d="M232.054 375.316C215.172 339.138 184.078 314.812 151.053 292.429L138.961 300.267L138.971 300.277C172.176 321.73 203.56 344.734 221.703 380.311C237.955 414.457 242.575 456.632 227.333 491.879C208.451 531.411 177.887 564.846 142.872 591.014L147.173 597C181.877 572.144 212.021 540.07 232.774 502.41C253.547 463.599 250.067 414.507 232.044 375.296L232.054 375.316Z" fill="#FAF9F6"/>
<path d="M153.423 275.391C159.794 271.006 166.025 266.531 172.046 261.876C201.53 239.923 228.413 209.611 238.855 173.763C242.425 161.47 243.195 150.569 242.965 146.895C242.645 142.06 239.075 137.785 234.674 136.344C231.784 135.233 227.873 135.773 224.973 135.643H114.788L117.288 143.541H224.973C226.433 143.621 231.144 143.321 232.114 143.782C234.064 144.422 235.144 146.244 234.914 148.126C234.564 159.248 233.054 161.861 229.544 172.302C225.483 184.405 219.462 195.837 211.891 206.198C189.968 236.139 157.724 255.83 125.039 275.11H125.029C89.8147 251.726 52.8397 225.698 35.7673 185.406C17.6649 142.721 25.886 96.5719 55.12 60.9943C67.9017 45.4379 83.2938 32.4843 99.756 20.832L84.894 0C64.1812 15.0559 45.2586 31.8336 31.4567 55.0981C10.9639 89.6746 2.86286 131.869 13.6243 171.03C28.6864 225.918 69.2319 255.61 111.778 282.908C88.1945 296.893 65.0713 311.338 46.1687 329.958C11.564 362.683 -5.52831 407.66 1.59266 454.65H27.5362C21.1453 425.189 26.196 393.055 42.4882 367.468C57.5403 343.733 78.9432 325.814 102.046 309.627C110.297 303.831 118.759 298.275 127.23 292.739H127.24C131.35 290.056 135.461 287.373 139.551 284.69C144.212 281.607 148.873 278.514 153.443 275.361L153.423 275.391Z" fill="#FAF9F6"/>
<path d="M1051.24 453.446H1036.61V522.197H1080.32V509.299H1051.24V453.446Z" fill="#FAF9F6"/>
<path d="M1120.69 452.308C1099.96 452.308 1084.81 467.153 1084.81 487.877C1084.81 508.601 1099.98 523.447 1120.69 523.447C1141.41 523.447 1156.68 508.601 1156.68 487.877C1156.68 467.153 1141.52 452.308 1120.69 452.308ZM1120.69 510.439C1108.01 510.439 1099.87 500.646 1099.87 487.859C1099.87 475.071 1108.01 465.279 1120.69 465.279C1133.37 465.279 1141.63 474.961 1141.63 487.859C1141.63 500.756 1133.37 510.439 1120.69 510.439Z" fill="#FAF9F6"/>
<path d="M1214.94 497.963L1183.07 453.446H1168.01V522.197H1182.66V476.008L1215.45 522.197H1229.59V453.446H1214.94V497.963Z" fill="#FAF9F6"/>
<path d="M1273.99 496.823H1292.35V505.164C1289.35 507.847 1283.78 510.419 1277.5 510.419C1265.02 510.419 1255.94 500.829 1255.94 487.839C1255.94 474.85 1265.02 465.259 1277.5 465.259C1284.72 465.259 1290.58 469.081 1293.78 473.913L1305.95 467.317C1300.69 459.178 1291.72 452.27 1277.5 452.27C1257.39 452.27 1240.88 466.086 1240.88 487.839C1240.88 509.592 1257.39 523.5 1277.5 523.5C1289.98 523.5 1299.78 518.338 1306.78 510.511V484.22H1273.99V496.787V496.823Z" fill="#FAF9F6"/>
<path d="M1320.12 522.197H1368.79V509.501H1334.75V493.535H1368.08V480.95H1334.75V466.013H1368.79V453.446H1320.12V522.197Z" fill="#FAF9F6"/>
<path d="M1410.89 506.323L1391.81 453.446H1375.1L1401.72 522.197H1420.06L1446.57 453.446H1429.86L1410.89 506.323Z" fill="#FAF9F6"/>
<path d="M1468.57 453.446H1453.92V522.197H1468.57V453.446Z" fill="#FAF9F6"/>
<path d="M1477.12 466.326H1497.23V522.197H1511.97V466.326H1531.97V453.446H1477.12V466.326Z" fill="#FAF9F6"/>
<path d="M1571.19 481.059L1554.06 453.445H1537.37L1563.85 494.049V522.196H1578.5V494.049L1604.81 453.445H1588.1L1571.19 481.059Z" fill="#FAF9F6"/>
<path d="M1674.49 465.297C1682.12 465.297 1688.31 469.725 1691.2 475.292L1703.77 469.1C1698.92 460.539 1690.15 452.308 1674.49 452.308C1654.38 452.308 1638.39 466.73 1638.39 487.877C1638.39 509.024 1654.38 523.447 1674.49 523.447C1690.17 523.447 1698.83 515.105 1703.77 506.544L1691.2 500.462C1688.31 506.14 1682.12 510.457 1674.49 510.457C1662.52 510.457 1653.46 500.866 1653.46 487.877C1653.46 474.888 1662.54 465.297 1674.49 465.297Z" fill="#FAF9F6"/>
<path d="M1713.4 522.197H1762.07V509.501H1728.05V493.535H1761.35V480.95H1728.05V466.013H1762.07V453.446H1713.4V522.197Z" fill="#FAF9F6"/>
<path d="M1822.55 497.963L1790.68 453.446H1775.62V522.197H1790.27V476.008L1823.06 522.197H1837.18V453.446H1822.55V497.963Z" fill="#FAF9F6"/>
<path d="M1845.91 466.326H1866.02V522.197H1880.76V466.326H1900.76V453.446H1845.91V466.326Z" fill="#FAF9F6"/>
<path d="M1909.44 522.197H1958.11V509.501H1924.08V493.535H1957.39V480.95H1924.08V466.013H1958.11V453.446H1909.44V522.197Z" fill="#FAF9F6"/>
<path d="M2026.93 475.604C2026.93 462.816 2018.16 453.446 2003.82 453.446H1971.65V522.197H1986.3V497.559H1997.02L2010.53 522.197H2027.33L2011.85 496.016C2019.28 494.27 2026.91 487.766 2026.91 475.604H2026.93ZM2001.65 484.974H1986.28V466.013H2001.65C2007.53 466.013 2011.96 469.724 2011.96 475.493C2011.96 481.262 2007.53 484.974 2001.65 484.974Z" fill="#FAF9F6"/>
<path d="M962.33 334.537H826.255C822.303 334.537 819.105 331.34 819.105 327.39V238.834C819.105 234.884 822.303 231.687 826.255 231.687H934.593C936.615 231.687 938.27 230.052 938.27 228.012V210.117C938.27 208.096 936.634 206.443 934.593 206.443H826.255C822.303 206.443 819.105 203.246 819.105 199.296V110.74C819.105 106.79 822.303 103.593 826.255 103.593H954.059C956.081 103.593 957.735 101.958 957.735 99.9186V82.0236C957.735 80.0027 956.099 78.3491 954.059 78.3491H781.57C772.122 78.3491 764.458 86.0104 764.458 95.4539V342.639C764.458 352.083 772.122 359.744 781.57 359.744H962.33C964.352 359.744 966.007 358.109 966.007 356.069V338.174C966.007 336.154 964.371 334.5 962.33 334.5V334.537Z" fill="#FAF9F6"/>
<path d="M1811.23 347.857L1911.41 86.1759C1912.84 82.4095 1910.06 78.3675 1906.04 78.3675H1882.88C1880.49 78.3675 1878.34 79.8371 1877.49 82.0786L1795.13 298.765C1793.09 304.148 1785.48 304.149 1783.42 298.784L1710.19 108.407C1703.22 90.2913 1685.81 78.3491 1666.4 78.3491H1647.42C1644.33 78.3491 1642.2 81.4357 1643.3 84.3202L1744.17 347.839C1746.91 355.004 1753.81 359.744 1761.47 359.744H1793.91C1801.6 359.744 1808.47 355.004 1811.21 347.839L1811.23 347.857Z" fill="#FAF9F6"/>
<path d="M2050.03 78.3799H2005.97C2003.05 78.3799 2000.68 80.7489 2000.68 83.6712V354.465C2000.68 357.387 2003.05 359.756 2005.97 359.756H2050.03C2052.96 359.756 2055.33 357.387 2055.33 354.465V83.6712C2055.33 80.7489 2052.96 78.3799 2050.03 78.3799Z" fill="#FAF9F6"/>
<path d="M2139.79 103.61H2219.29C2221.79 103.61 2223.81 105.631 2223.81 108.129V355.241C2223.81 357.74 2225.83 359.761 2228.33 359.761H2274.52C2277.02 359.761 2279.05 357.74 2279.05 355.241V108.129C2279.05 105.631 2281.07 103.61 2283.57 103.61H2363.07C2365.57 103.61 2367.59 101.589 2367.59 99.0899V82.9222C2367.59 80.4235 2365.57 78.4023 2363.07 78.4023H2139.77C2137.27 78.4023 2135.25 80.4235 2135.25 82.9222V99.0899C2135.25 101.589 2137.27 103.61 2139.77 103.61H2139.79Z" fill="#FAF9F6"/>
<path d="M2686.41 78.3824H2661.49C2659.89 78.3824 2658.4 79.2277 2657.59 80.6057L2582.36 207.928C2580.61 210.886 2576.33 210.886 2574.57 207.928L2511.96 102.377C2503.14 87.4953 2487.11 78.3643 2469.79 78.3643H2442.88C2439.37 78.3643 2437.2 82.1857 2438.99 85.1988L2536.5 248.917C2536.92 249.615 2537.14 250.424 2537.14 251.232V355.221C2537.14 357.72 2539.16 359.741 2541.66 359.741H2587.65C2590.15 359.741 2592.17 357.72 2592.17 355.221V250.607C2592.17 249.799 2592.4 248.991 2592.82 248.293L2690.31 85.2172C2692.11 82.2041 2689.94 78.3643 2686.43 78.3643L2686.41 78.3824Z" fill="#FAF9F6"/>
<path d="M1275.67 78.3824H1255.88C1253.65 78.3824 1251.85 80.1831 1251.85 82.4061V278.607H1249.65L1092.95 80.6608C1091.81 79.2094 1090.06 78.3643 1088.22 78.3643H1060.67C1058.45 78.3643 1056.64 80.1647 1056.64 82.3878V355.717C1056.64 357.94 1058.45 359.741 1060.67 359.741H1079.55C1081.77 359.741 1083.57 357.94 1083.57 355.717V159.516H1085.41L1242.72 358.216C1243.49 359.189 1244.65 359.741 1245.88 359.741H1275.69C1277.92 359.741 1279.72 357.94 1279.72 355.717V82.3878C1279.72 80.1647 1277.92 78.3643 1275.69 78.3643L1275.67 78.3824Z" fill="#FAF9F6"/>
<path d="M668.256 266.468C651.18 324.874 597.948 364.651 525.766 364.651C437.371 364.651 373 299.465 373 219.085C373 138.704 437.389 73.5 525.766 73.5C591.203 73.5 641.034 109.216 662.503 160.402C664.433 165.032 661.069 170.14 656.051 170.14H623.37C618.719 170.14 614.675 167.127 613.186 162.736C600.283 124.796 569.55 100.471 525.784 100.471C462.02 100.471 426.452 155.019 426.452 219.103C426.452 283.187 462.02 337.698 525.784 337.698C581.35 337.698 607.286 307.898 618.609 261.507C619.362 258.439 617.046 255.444 613.866 255.444H530.673V219.066H659.544C667.742 219.066 674.249 225.993 673.679 234.168C672.999 244.2 671.344 255.885 668.256 266.449V266.468Z" fill="#FAF9F6"/>
<path d="M1584.16 334.537H1448.08C1444.13 334.537 1440.93 331.34 1440.93 327.39V238.834C1440.93 234.884 1444.13 231.687 1448.08 231.687H1556.42C1558.44 231.687 1560.09 230.052 1560.09 228.012V210.117C1560.09 208.096 1558.46 206.443 1556.42 206.443H1448.08C1444.13 206.443 1440.93 203.246 1440.93 199.296V110.74C1440.93 106.79 1444.13 103.593 1448.08 103.593H1575.88C1577.91 103.593 1579.56 101.958 1579.56 99.9186V82.0236C1579.56 80.0027 1577.92 78.3491 1575.88 78.3491H1403.4C1393.95 78.3491 1386.28 86.0104 1386.28 95.4539V342.639C1386.28 352.083 1393.95 359.744 1403.4 359.744H1584.16C1586.18 359.744 1587.83 358.109 1587.83 356.069V338.174C1587.83 336.154 1586.2 334.5 1584.16 334.5V334.537Z" fill="#FAF9F6"/>
</svg>
