<svg width="510" height="1231" viewBox="0 0 510 1231" fill="none" xmlns="http://www.w3.org/2000/svg">
<g opacity="0.78">
<path d="M478.616 773.3C443.806 698.75 379.676 648.63 311.556 602.52L286.626 618.68L286.656 618.71C355.146 662.91 419.856 710.32 457.276 783.62C490.786 853.97 500.326 940.87 468.886 1013.51C429.956 1094.97 366.916 1163.85 294.706 1217.78L303.586 1230.11C375.156 1178.9 437.316 1112.8 480.136 1035.22C522.976 955.25 515.806 854.1 478.616 773.31V773.3Z" fill="#FAF9F6"/>
<path d="M316.446 567.41C329.576 558.37 342.436 549.15 354.846 539.56C415.656 494.33 471.096 431.87 492.616 358.02C499.976 332.69 501.576 310.24 501.096 302.66C500.436 292.69 493.066 283.9 484.006 280.92C478.056 278.63 469.976 279.75 463.996 279.48H236.766L241.926 295.75H463.996C466.996 295.91 476.726 295.3 478.716 296.25C482.726 297.58 484.966 301.33 484.486 305.21C483.766 328.12 480.656 333.51 473.406 355.01C465.036 379.94 452.626 403.51 436.996 424.85C391.786 486.53 325.296 527.12 257.866 566.85H257.836C185.206 518.67 108.956 465.04 73.7356 382.01C36.3956 294.07 53.3556 198.98 113.656 125.68C140.016 93.63 171.756 66.95 205.716 42.92L175.076 0C132.366 31.01 93.3256 65.59 64.8656 113.53C22.6056 184.78 5.89561 271.71 28.0856 352.4C59.1556 465.48 142.766 526.66 230.516 582.92C181.876 611.73 134.206 641.49 95.2156 679.87C23.8556 747.29 -11.4044 839.97 3.28562 936.78H56.7856C43.6056 876.08 54.0256 809.88 87.6156 757.15C118.656 708.25 162.796 671.33 210.456 637.98C227.466 626.05 244.926 614.59 262.386 603.19H262.416C270.896 597.66 279.376 592.14 287.796 586.61C297.416 580.26 307.006 573.88 316.446 567.4V567.41Z" fill="#FAF9F6"/>
</g>
</svg>
