<svg width="2691" height="597" viewBox="0 0 2691 597" fill="none" xmlns="http://www.w3.org/2000/svg">
<path d="M232.054 375.316C215.172 339.138 184.078 314.812 151.053 292.429L138.961 300.267L138.971 300.277C172.176 321.73 203.56 344.734 221.703 380.311C237.955 414.457 242.575 456.632 227.333 491.879C208.451 531.411 177.887 564.846 142.872 591.014L147.173 597C181.877 572.144 212.021 540.07 232.774 502.41C253.547 463.599 250.067 414.507 232.044 375.296L232.054 375.316Z" fill="#F2F0EB"/>
<path d="M153.423 275.391C159.794 271.006 166.025 266.531 172.046 261.876C201.53 239.923 228.413 209.611 238.855 173.763C242.425 161.47 243.195 150.569 242.965 146.895C242.645 142.06 239.075 137.785 234.674 136.344C231.784 135.233 227.873 135.773 224.973 135.643H114.788L117.288 143.541H224.973C226.433 143.621 231.144 143.321 232.114 143.782C234.064 144.422 235.144 146.244 234.914 148.126C234.564 159.248 233.054 161.861 229.544 172.302C225.483 184.405 219.462 195.837 211.891 206.198C189.968 236.139 157.724 255.83 125.039 275.11H125.029C89.8147 251.726 52.8397 225.698 35.7673 185.406C17.6649 142.721 25.886 96.5719 55.12 60.9943C67.9017 45.4379 83.2938 32.4843 99.756 20.832L84.894 0C64.1812 15.0559 45.2586 31.8336 31.4567 55.0981C10.9639 89.6746 2.86286 131.869 13.6243 171.03C28.6864 225.918 69.2319 255.61 111.778 282.908C88.1945 296.893 65.0713 311.338 46.1687 329.958C11.564 362.683 -5.52831 407.66 1.59266 454.65H27.5362C21.1453 425.189 26.196 393.055 42.4882 367.468C57.5403 343.733 78.9432 325.814 102.046 309.627C110.297 303.831 118.759 298.275 127.23 292.739H127.24C131.35 290.056 135.461 287.373 139.551 284.69C144.212 281.607 148.873 278.514 153.443 275.361L153.423 275.391Z" fill="#F2F0EB"/>
<path d="M962.33 413.961H826.255C822.303 413.961 819.105 410.764 819.105 406.814V318.258C819.105 314.308 822.303 311.111 826.255 311.111H934.593C936.615 311.111 938.27 309.476 938.27 307.437V289.542C938.27 287.521 936.634 285.867 934.593 285.867H826.255C822.303 285.867 819.105 282.67 819.105 278.72V190.164C819.105 186.214 822.303 183.017 826.255 183.017H954.059C956.081 183.017 957.735 181.382 957.735 179.343V161.448C957.735 159.427 956.099 157.773 954.059 157.773H781.57C772.122 157.773 764.458 165.435 764.458 174.878V422.063C764.458 431.507 772.122 439.168 781.57 439.168H962.33C964.352 439.168 966.007 437.533 966.007 435.494V417.599C966.007 415.578 964.371 413.924 962.33 413.924V413.961Z" fill="#F2F0EB"/>
<path d="M1811.23 427.281L1911.41 165.6C1912.84 161.834 1910.06 157.792 1906.04 157.792H1882.88C1880.49 157.792 1878.34 159.261 1877.49 161.503L1795.13 378.19C1793.09 383.573 1785.48 383.573 1783.42 378.208L1710.19 187.831C1703.22 169.716 1685.81 157.773 1666.4 157.773H1647.42C1644.33 157.773 1642.2 160.86 1643.3 163.745L1744.17 427.263C1746.91 434.428 1753.81 439.168 1761.47 439.168H1793.91C1801.6 439.168 1808.47 434.428 1811.21 427.263L1811.23 427.281Z" fill="#F2F0EB"/>
<path d="M2050.03 157.805H2005.97C2003.05 157.805 2000.68 160.174 2000.68 163.096V433.89C2000.68 436.812 2003.05 439.181 2005.97 439.181H2050.03C2052.96 439.181 2055.33 436.812 2055.33 433.89V163.096C2055.33 160.174 2052.96 157.805 2050.03 157.805Z" fill="#F2F0EB"/>
<path d="M2139.79 183.035H2219.29C2221.79 183.035 2223.81 185.055 2223.81 187.554V434.666C2223.81 437.164 2225.83 439.185 2228.33 439.185H2274.52C2277.02 439.185 2279.05 437.164 2279.05 434.666V187.554C2279.05 185.055 2281.07 183.035 2283.57 183.035H2363.07C2365.57 183.035 2367.59 181.013 2367.59 178.515V162.347C2367.59 159.848 2365.57 157.827 2363.07 157.827H2139.77C2137.27 157.827 2135.25 159.848 2135.25 162.347V178.515C2135.25 181.013 2137.27 183.035 2139.77 183.035H2139.79Z" fill="#F2F0EB"/>
<path d="M2686.41 157.807H2661.49C2659.89 157.807 2658.4 158.653 2657.59 160.03L2582.36 287.353C2580.61 290.311 2576.33 290.311 2574.57 287.353L2511.96 181.802C2503.14 166.92 2487.11 157.789 2469.79 157.789H2442.88C2439.37 157.789 2437.2 161.611 2438.99 164.624L2536.5 328.342C2536.92 329.04 2537.14 329.848 2537.14 330.657V434.646C2537.14 437.144 2539.16 439.165 2541.66 439.165H2587.65C2590.15 439.165 2592.17 437.144 2592.17 434.646V330.032C2592.17 329.224 2592.4 328.415 2592.82 327.717L2690.31 164.642C2692.11 161.629 2689.94 157.789 2686.43 157.789L2686.41 157.807Z" fill="#F2F0EB"/>
<path d="M1275.67 157.807H1255.88C1253.65 157.807 1251.85 159.608 1251.85 161.831V358.032H1249.65L1092.95 160.086C1091.81 158.634 1090.06 157.789 1088.22 157.789H1060.67C1058.45 157.789 1056.64 159.589 1056.64 161.813V435.142C1056.64 437.365 1058.45 439.165 1060.67 439.165H1079.55C1081.77 439.165 1083.57 437.365 1083.57 435.142V238.941H1085.41L1242.72 437.641C1243.49 438.614 1244.65 439.165 1245.88 439.165H1275.69C1277.92 439.165 1279.72 437.365 1279.72 435.142V161.813C1279.72 159.589 1277.92 157.789 1275.69 157.789L1275.67 157.807Z" fill="#F2F0EB"/>
<path d="M668.256 345.892C651.18 404.299 597.948 444.076 525.766 444.076C437.371 444.076 373 378.89 373 298.509C373 218.129 437.389 152.925 525.766 152.925C591.203 152.925 641.034 188.641 662.503 239.827C664.433 244.457 661.069 249.565 656.051 249.565H623.37C618.719 249.565 614.675 246.552 613.186 242.161C600.283 204.221 569.55 179.896 525.784 179.896C462.02 179.896 426.452 234.444 426.452 298.528C426.452 362.611 462.02 417.123 525.784 417.123C581.35 417.123 607.286 387.323 618.609 340.932C619.362 337.863 617.046 334.869 613.866 334.869H530.673V298.491H659.544C667.742 298.491 674.249 305.417 673.679 313.593C672.999 323.625 671.344 335.31 668.256 345.874V345.892Z" fill="#F2F0EB"/>
<path d="M1584.16 413.962H1448.08C1444.13 413.962 1440.93 410.765 1440.93 406.815V318.259C1440.93 314.309 1444.13 311.112 1448.08 311.112H1556.42C1558.44 311.112 1560.09 309.477 1560.09 307.438V289.543C1560.09 287.522 1558.46 285.868 1556.42 285.868H1448.08C1444.13 285.868 1440.93 282.671 1440.93 278.721V190.165C1440.93 186.215 1444.13 183.018 1448.08 183.018H1575.88C1577.91 183.018 1579.56 181.383 1579.56 179.344V161.449C1579.56 159.428 1577.92 157.774 1575.88 157.774H1403.4C1393.95 157.774 1386.28 165.436 1386.28 174.879V422.064C1386.28 431.508 1393.95 439.169 1403.4 439.169H1584.16C1586.18 439.169 1587.83 437.534 1587.83 435.495V417.6C1587.83 415.579 1586.2 413.925 1584.16 413.925V413.962Z" fill="#F2F0EB"/>
</svg>
